<svg width="292" height="240" viewBox="0 0 292 240" fill="none" xmlns="http://www.w3.org/2000/svg">
<path d="M35.0005 126C28.0009 93.5 41.5002 56.5 81.0006 56.5C116 56.5 132.331 81.0449 142.619 105.5M262 90.9999C286.5 161.5 253.035 226.107 200.001 215.5C180.001 211.5 171.736 196.23 166.596 184.5" stroke="#CBE5FF" stroke-width="2" stroke-linecap="round" stroke-linejoin="round" stroke-dasharray="6 6"/>
<path d="M285.456 44H228C225.239 44 223 46.2386 223 49V80.8156C223 83.577 225.239 85.8156 228 85.8156H236.527V97.5685C236.527 97.9944 237.026 98.2253 237.351 97.9499L251.664 85.8156H285.456C288.217 85.8156 290.456 83.577 290.456 80.8156V49C290.456 46.2386 288.217 44 285.456 44Z" fill="white" stroke="#90C6FF" stroke-width="2" stroke-linecap="round" stroke-linejoin="round"/>
<path d="M283.187 48.2693H230.27C228.613 48.2693 227.27 49.6124 227.27 51.2693V78.863C227.27 80.5198 228.613 81.863 230.27 81.863H240.396V89.0305C240.396 89.4562 240.894 89.6872 241.219 89.412L250.133 81.863H283.187C284.844 81.863 286.187 80.5198 286.187 78.863V51.2693C286.187 49.6124 284.844 48.2693 283.187 48.2693Z" fill="url(#paint0_linear_1529_2111)"/>
<path d="M248.616 56.8082L277.648 56.8082" stroke="#288FFF" stroke-width="2" stroke-linecap="round"/>
<path d="M234.954 65.3468H277.648" stroke="#288FFF" stroke-width="2" stroke-linecap="round"/>
<path d="M234.954 73.8855H277.648" stroke="#288FFF" stroke-width="2" stroke-linecap="round"/>
<circle cx="81" cy="57" r="26" fill="white" stroke="#90C6FF" stroke-width="2"/>
<circle cx="81" cy="57" r="22.75" fill="url(#paint1_linear_1529_2111)"/>
<circle cx="80.9995" cy="57" r="18.4516" fill="white" stroke="#90C6FF" stroke-width="2"/>
<circle cx="80.9999" cy="57" r="15.0526" fill="url(#paint2_linear_1529_2111)"/>
<circle cx="81" cy="57" r="8" fill="#288FFF"/>
<path d="M105.5 32L81 56.5M105.5 32L105.5 25L114.5 16L113.5 24.5L122 25L112 32.5L105.5 32Z" stroke="#90C6FF" stroke-width="2" stroke-linecap="round" stroke-linejoin="round"/>
<rect x="3" y="139.436" width="67.2308" height="82.5641" rx="4" fill="white" stroke="#90C6FF" stroke-width="2"/>
<rect x="6.53809" y="142.974" width="60.1538" height="75.4872" rx="2" fill="url(#paint3_linear_1529_2111)"/>
<rect x="23.0508" y="134.718" width="27.7179" height="10.0256" rx="2" fill="white" stroke="#90C6FF" stroke-width="2"/>
<rect x="26" y="137" width="22" height="5" rx="1" fill="url(#paint4_linear_1529_2111)"/>
<path d="M30.7178 132C30.7178 130.895 31.6132 130 32.7178 130H39.9229C41.0275 130 41.9229 130.895 41.9229 132V134.718H30.7178V132Z" fill="white" stroke="#90C6FF" stroke-width="2"/>
<path d="M33 132.6C33 132.269 33.2686 132 33.6 132H38.9C39.2314 132 39.5 132.269 39.5 132.6V134H33V132.6Z" fill="url(#paint5_linear_1529_2111)"/>
<rect x="14.7949" y="155.359" width="12.9744" height="12.9744" rx="2" fill="#288FFF"/>
<rect x="14.7949" y="174.231" width="12.9744" height="12.9744" rx="2" fill="#288FFF"/>
<rect x="14.7949" y="193.103" width="12.9744" height="12.9744" rx="2" fill="#288FFF"/>
<path d="M37.7949 161.256H59.6154" stroke="#288FFF" stroke-width="2" stroke-linecap="round" stroke-linejoin="round"/>
<path d="M18.9229 159.487L23.0511 163.615L31.3075 155.359" stroke="#90C6FF" stroke-width="2" stroke-linecap="round" stroke-linejoin="round"/>
<path d="M18.9229 178.359L23.0511 182.487L31.3075 174.231" stroke="#90C6FF" stroke-width="2" stroke-linecap="round" stroke-linejoin="round"/>
<path d="M18.9229 197.231L23.0511 201.359L31.3075 193.103" stroke="#90C6FF" stroke-width="2" stroke-linecap="round" stroke-linejoin="round"/>
<path d="M37.7949 180.718H59.6154" stroke="#288FFF" stroke-width="2" stroke-linecap="round" stroke-linejoin="round"/>
<path d="M37.7949 199.59H59.6154" stroke="#288FFF" stroke-width="2" stroke-linecap="round" stroke-linejoin="round"/>
<path d="M280.054 187.048C261.913 167.694 245.272 177.78 237.643 187.054C236.659 188.25 236.908 190.005 238.156 190.922C254.791 203.158 271.452 197.05 279.723 191.058C281.04 190.104 281.167 188.235 280.054 187.048Z" fill="white" stroke="#90C6FF" stroke-width="2" stroke-linecap="round" stroke-linejoin="round"/>
<circle cx="259" cy="187" r="11" fill="white" stroke="#90C6FF" stroke-width="2"/>
<circle cx="259" cy="187" r="8" fill="url(#paint6_linear_1529_2111)"/>
<circle cx="259" cy="187" r="4" fill="#288FFF"/>
<path d="M154.834 95V107.843" stroke="#90C6FF" stroke-width="2" stroke-linecap="round" stroke-linejoin="round"/>
<path d="M186.312 108.173L177.23 117.254" stroke="#90C6FF" stroke-width="2" stroke-linecap="round" stroke-linejoin="round"/>
<path d="M121.905 108.173L130.987 117.254" stroke="#90C6FF" stroke-width="2" stroke-linecap="round" stroke-linejoin="round"/>
<path d="M114 135.177L126.843 135.177" stroke="#90C6FF" stroke-width="2" stroke-linecap="round" stroke-linejoin="round"/>
<path d="M183.156 135.177L196 135.177" stroke="#90C6FF" stroke-width="2" stroke-linecap="round" stroke-linejoin="round"/>
<path d="M178.547 150.984L187.629 160.066" stroke="#90C6FF" stroke-width="2" stroke-linecap="round" stroke-linejoin="round"/>
<path d="M146.273 175.501L163.398 175.501" stroke="#288FFF" stroke-width="2" stroke-linecap="round" stroke-linejoin="round"/>
<path d="M147.592 181.358L162.082 181.358" stroke="#288FFF" stroke-width="2" stroke-linecap="round" stroke-linejoin="round"/>
<path d="M150.226 187.215L159.447 187.215" stroke="#288FFF" stroke-width="2" stroke-linecap="round" stroke-linejoin="round"/>
<path d="M120.586 160.066L129.668 150.984" stroke="#90C6FF" stroke-width="2" stroke-linecap="round" stroke-linejoin="round"/>
<path d="M178.217 135.836C178.217 146.045 174.044 150.474 167.679 157.9C163.398 162.895 167.021 169.756 162.739 169.756C157.141 169.756 149.896 169.756 146.603 169.756C142.529 169.756 146 161.579 142.322 157.571C137.053 151.83 131.454 146.045 131.454 135.836C131.454 123.104 141.775 112.783 154.506 112.783C167.238 112.783 178.217 123.104 178.217 135.836Z" fill="white" stroke="#90C6FF" stroke-width="2"/>
<path d="M174.925 136.19C174.925 144.806 170.514 149.328 165.045 155.595C161.367 159.81 163.728 166.133 160.435 166.133C155.625 166.133 152.067 166.133 149.238 166.133C145.945 166.133 148.776 158.978 145.616 155.595C141.089 150.75 134.748 144.781 134.748 136.165C134.748 125.421 144.228 116.077 155.166 116.077C166.104 116.077 174.925 125.445 174.925 136.19Z" fill="url(#paint7_linear_1529_2111)"/>
<path d="M170.313 134.848C170.313 130.896 168.759 126.841 164.385 124.31M157.47 121.016C158.787 121.016 159.775 121.346 160.763 122.004" stroke="#288FFF" stroke-width="2" stroke-linecap="round" stroke-linejoin="round"/>
<path d="M206 125H239" stroke="#288FFF" stroke-width="2" stroke-linecap="round" stroke-linejoin="round"/>
<path d="M206 135H239" stroke="#288FFF" stroke-width="2" stroke-linecap="round" stroke-linejoin="round"/>
<path d="M206 145H225" stroke="#288FFF" stroke-width="2" stroke-linecap="round" stroke-linejoin="round"/>
<path d="M206 155H225" stroke="#288FFF" stroke-width="2" stroke-linecap="round" stroke-linejoin="round"/>
<defs>
<linearGradient id="paint0_linear_1529_2111" x1="257.168" y1="47.3791" x2="257.168" y2="97.2253" gradientUnits="userSpaceOnUse">
<stop stop-color="#CAE4FF"/>
<stop offset="1" stop-color="#CAE4FF" stop-opacity="0"/>
</linearGradient>
<linearGradient id="paint1_linear_1529_2111" x1="81" y1="34.25" x2="81" y2="79.75" gradientUnits="userSpaceOnUse">
<stop stop-color="#B5DAFF"/>
<stop offset="1" stop-color="#B5DAFF" stop-opacity="0"/>
</linearGradient>
<linearGradient id="paint2_linear_1529_2111" x1="80.9999" y1="41.9474" x2="80.9999" y2="72.0527" gradientUnits="userSpaceOnUse">
<stop stop-color="#B5DAFF"/>
<stop offset="1" stop-color="#B5DAFF" stop-opacity="0"/>
</linearGradient>
<linearGradient id="paint3_linear_1529_2111" x1="36.615" y1="142.974" x2="36.615" y2="218.462" gradientUnits="userSpaceOnUse">
<stop stop-color="#CBE5FF"/>
<stop offset="1" stop-color="#CBE5FF" stop-opacity="0"/>
</linearGradient>
<linearGradient id="paint4_linear_1529_2111" x1="37" y1="137" x2="37" y2="142" gradientUnits="userSpaceOnUse">
<stop stop-color="#CBE5FF"/>
<stop offset="1" stop-color="#CBE5FF" stop-opacity="0"/>
</linearGradient>
<linearGradient id="paint5_linear_1529_2111" x1="36.5" y1="132" x2="36.5" y2="134" gradientUnits="userSpaceOnUse">
<stop stop-color="#CDE6FF"/>
<stop offset="1" stop-color="#CDE6FF" stop-opacity="0"/>
</linearGradient>
<linearGradient id="paint6_linear_1529_2111" x1="259" y1="179" x2="259" y2="195" gradientUnits="userSpaceOnUse">
<stop stop-color="#B5DAFF"/>
<stop offset="1" stop-color="#B5DAFF" stop-opacity="0"/>
</linearGradient>
<linearGradient id="paint7_linear_1529_2111" x1="154.837" y1="116.077" x2="154.837" y2="166.133" gradientUnits="userSpaceOnUse">
<stop stop-color="#CBE5FF"/>
<stop offset="1" stop-color="#CBE5FF" stop-opacity="0"/>
</linearGradient>
</defs>
</svg>
