<svg width="94" height="94" viewBox="0 0 94 94" fill="none" xmlns="http://www.w3.org/2000/svg">
<path d="M14.1719 30.9626C14.1719 29.8581 15.0673 28.9626 16.1719 28.9626H61.9819C63.0865 28.9626 63.9819 29.8581 63.9819 30.9626V62.2825C63.9819 63.3871 63.0865 64.2825 61.9819 64.2825H16.1719C15.0673 64.2825 14.1719 63.3871 14.1719 62.2825V30.9626Z" fill="url(#paint0_linear_1680_1993)"/>
<path d="M20.9624 40.7349H30.0188V44.1687C30.0188 45.2733 29.1233 46.1687 28.0188 46.1687H22.9624C21.8578 46.1687 20.9624 45.2733 20.9624 44.1687V40.7349Z" fill="#288FFF"/>
<path d="M48.1313 40.7349H57.1877V44.1687C57.1877 45.2733 56.2923 46.1687 55.1877 46.1687H50.1313C49.0268 46.1687 48.1313 45.2733 48.1313 44.1687V40.7349Z" fill="#288FFF"/>
<path d="M11 39.8298H67.1495" stroke="#288FFF" stroke-width="2"/>
<path d="M26.3955 22C26.3955 20.3431 27.7387 19 29.3955 19H49.659C51.3159 19 52.659 20.3431 52.659 22V26.2451H26.3955V22Z" fill="url(#paint1_linear_1680_1993)" stroke="#288FFF" stroke-width="2"/>
<rect x="11" y="26.2463" width="56.1495" height="40.7537" rx="4" stroke="#90C6FF" stroke-width="2"/>
<path d="M82.923 74.0003V37.7583L66.029 56.1607C63.6845 58.7146 59.6697 58.7557 57.2733 56.2504L53.361 52.1603L31 74.0003H82.923Z" fill="white"/>
<path d="M82.9229 74.0002V42.3062L65.9548 61.3581C63.5147 64.0978 59.209 64.0255 56.8622 61.2055L53.2406 56.8534L39.0935 70.564C37.8031 71.8145 38.6884 74.0002 40.4854 74.0002H82.9229Z" fill="url(#paint2_linear_1680_1993)"/>
<path d="M82.1349 38.1372L63.1714 59.5311C62.3736 60.4313 60.9673 60.4286 60.173 59.5253L54.7691 53.3811C54.0064 52.5138 52.6697 52.471 51.853 53.2877L31.7578 73.3842" stroke="#288FFF" stroke-width="2" stroke-linecap="round"/>
<path d="M76.48 37.0002H82.302C82.8543 37.0002 83.302 37.448 83.302 38.0002V43.8222" stroke="#288FFF" stroke-width="2" stroke-linecap="round"/>
<defs>
<linearGradient id="paint0_linear_1680_1993" x1="39.0769" y1="28.9626" x2="39.0769" y2="64.2825" gradientUnits="userSpaceOnUse">
<stop stop-color="#D0EAFF"/>
<stop offset="1" stop-color="#D0EAFF" stop-opacity="0"/>
</linearGradient>
<linearGradient id="paint1_linear_1680_1993" x1="39.5273" y1="19" x2="39.5273" y2="26.2451" gradientUnits="userSpaceOnUse">
<stop stop-color="#D0EAFF"/>
<stop offset="1" stop-color="#D0EAFF" stop-opacity="0"/>
</linearGradient>
<linearGradient id="paint2_linear_1680_1993" x1="54.4539" y1="42.5621" x2="54.4539" y2="74.0002" gradientUnits="userSpaceOnUse">
<stop stop-color="#CFE7FF"/>
<stop offset="1" stop-color="#CFE7FF" stop-opacity="0"/>
</linearGradient>
</defs>
</svg>
