<svg width="107" height="112" viewBox="0 0 107 112" fill="none" xmlns="http://www.w3.org/2000/svg">
<path d="M17.3811 40.1487V42.9256H73.5325V40.1487C73.5325 37.9395 71.7417 36.1487 69.5325 36.1487H21.3811C19.172 36.1487 17.3811 37.9395 17.3811 40.1487Z" fill="url(#paint0_linear_1670_1860)"/>
<path d="M20.6613 33.9722V34.9722V33.9722ZM15.7437 40.706C15.7437 38.788 15.8695 37.404 16.4754 36.4749C17.005 35.6628 18.0756 34.9722 20.6613 34.9722V32.9722C17.7412 32.9722 15.853 33.7679 14.8002 35.3824C13.8237 36.8799 13.7437 38.8628 13.7437 40.706H15.7437ZM20.6613 34.9722C25.3089 34.9722 57.1991 34.9722 70.6741 34.9722V32.9722C57.1988 32.9722 25.3092 32.9722 20.6613 32.9722V34.9722ZM75.6639 39.9722V43.1771H77.6639V39.9722H75.6639ZM70.6741 34.9722C73.4333 34.9722 75.6639 37.2085 75.6639 39.9722H77.6639C77.6639 36.1084 74.5424 32.9722 70.6741 32.9722V34.9722Z" fill="#90C6FF"/>
<path d="M81.0984 31.9798C81.4166 35.4451 80.6996 38.9269 79.038 41.9845C77.3765 45.0421 74.8452 47.538 71.7645 49.1563C68.6838 50.7746 65.1923 51.4425 61.7318 51.0755C58.2713 50.7086 54.9975 49.3232 52.3248 47.0948C49.652 44.8663 47.7005 41.895 46.7172 38.557C45.7339 35.2189 45.763 31.6642 46.8009 28.3427C47.8388 25.0212 49.8388 22.0823 52.5477 19.898C55.2567 17.7137 58.5528 16.3822 62.0188 16.072C64.3161 15.8637 66.6319 16.11 68.8341 16.7967C71.0362 17.4834 73.0815 18.5972 74.8532 20.0743C76.625 21.5515 78.0884 23.3632 79.1599 25.4059C80.2315 27.4487 80.8902 29.6825 81.0984 31.9798Z" fill="white" stroke="white" stroke-width="2" stroke-miterlimit="10"/>
<path d="M77.0571 32.3496C77.3019 35.015 76.7503 37.6931 75.4723 40.0449C74.1942 42.3967 72.2471 44.3164 69.8774 45.5612C67.5077 46.8059 64.822 47.3197 62.1602 47.0374C59.4984 46.7552 56.9801 45.6896 54.9242 43.9755C52.8683 42.2615 51.3672 39.9761 50.6108 37.4085C49.8545 34.841 49.8769 32.1068 50.6753 29.552C51.4736 26.9972 53.012 24.7367 55.0958 23.0566C57.1795 21.3765 59.7149 20.3524 62.381 20.1138C64.1481 19.9536 65.9294 20.143 67.6233 20.6712C69.3172 21.1994 70.8905 22.0561 72.2533 23.1923C73.6161 24.3285 74.7418 25.7219 75.566 27.2932C76.3903 28.8644 76.897 30.5825 77.0571 32.3496Z" fill="url(#paint1_linear_1670_1860)"/>
<path d="M81.0984 31.9798C81.4166 35.4451 80.6996 38.9269 79.038 41.9845C77.3765 45.0421 74.8452 47.538 71.7645 49.1563C68.6838 50.7746 65.1923 51.4425 61.7318 51.0755C58.2713 50.7086 54.9975 49.3232 52.3248 47.0948C49.652 44.8663 47.7005 41.895 46.7172 38.557C45.7339 35.2189 45.763 31.6642 46.8009 28.3427C47.8388 25.0212 49.8388 22.0823 52.5477 19.898C55.2567 17.7137 58.5528 16.3822 62.0188 16.072C64.3161 15.8637 66.6319 16.11 68.8341 16.7967C71.0362 17.4834 73.0815 18.5972 74.8532 20.0743C76.625 21.5515 78.0884 23.3632 79.1599 25.4059C80.2315 27.4487 80.8902 29.6825 81.0984 31.9798Z" stroke="#288FFF" stroke-width="2" stroke-miterlimit="10"/>
<path d="M51.9465 33.3578C52.1727 35.8208 51.663 38.2956 50.4821 40.4688C49.3011 42.642 47.5019 44.416 45.3123 45.5663C43.1226 46.7165 40.6409 47.1913 38.1813 46.9304C35.7217 46.6696 33.3948 45.6849 31.4951 44.101C29.5954 42.5171 28.2083 40.4052 27.5094 38.0326C26.8105 35.66 26.8312 33.1334 27.5689 30.7726C28.3066 28.4118 29.7282 26.3229 31.6536 24.7704C33.579 23.2179 35.9218 22.2715 38.3853 22.051C40.0182 21.903 41.6642 22.078 43.2294 22.5661C44.7946 23.0542 46.2484 23.8458 47.5077 24.8957C48.7669 25.9457 49.8071 27.2334 50.5687 28.6853C51.3303 30.1372 51.7985 31.7249 51.9465 33.3578Z" fill="white" stroke="white" stroke-width="2" stroke-miterlimit="10"/>
<path d="M49.0741 33.6206C49.248 35.515 48.856 37.4186 47.9476 39.0901C47.0392 40.7617 45.6552 42.1262 43.9709 43.011C42.2866 43.8957 40.3777 44.2609 38.4858 44.0602C36.5938 43.8596 34.8039 43.1022 33.3427 41.8839C31.8814 40.6657 30.8144 39.0412 30.2768 37.2163C29.7392 35.3914 29.7552 33.448 30.3226 31.6321C30.8901 29.8163 31.9835 28.2096 33.4646 27.0154C34.9456 25.8213 36.7477 25.0933 38.6427 24.9237C39.8987 24.8099 41.1648 24.9445 42.3688 25.3199C43.5728 25.6954 44.691 26.3043 45.6596 27.1118C46.6283 27.9194 47.4284 28.9099 48.0142 30.0266C48.6001 31.1434 48.9602 32.3646 49.0741 33.6206Z" fill="url(#paint2_linear_1670_1860)"/>
<path d="M51.9465 33.3578C52.1727 35.8208 51.663 38.2956 50.4821 40.4688C49.3011 42.642 47.5019 44.416 45.3123 45.5663C43.1226 46.7165 40.6409 47.1913 38.1813 46.9304C35.7217 46.6696 33.3948 45.6849 31.4951 44.101C29.5954 42.5171 28.2083 40.4052 27.5094 38.0326C26.8105 35.66 26.8312 33.1334 27.5689 30.7726C28.3066 28.4118 29.7282 26.3229 31.6536 24.7704C33.579 23.2179 35.9218 22.2715 38.3853 22.051C40.0182 21.903 41.6642 22.078 43.2294 22.5661C44.7946 23.0542 46.2484 23.8458 47.5077 24.8957C48.7669 25.9457 49.8071 27.2334 50.5687 28.6853C51.3303 30.1372 51.7985 31.7249 51.9465 33.3578Z" stroke="#288FFF" stroke-width="2" stroke-miterlimit="10"/>
<path d="M87.2273 49.2013V86.955C87.2273 90.2687 84.541 92.955 81.2273 92.955H22.7812C18.363 92.955 14.7812 89.3733 14.7812 84.955V38.5923C14.7812 38.5923 14.781 43.2013 20.6952 43.2013H81.2273C84.541 43.2013 87.2273 45.8876 87.2273 49.2013Z" fill="white"/>
<path d="M14.7812 38.5923H15.7812L13.7812 38.5922L14.7812 38.5923ZM88.2273 86.955V49.2013H86.2273V86.955H88.2273ZM81.2273 42.2013H20.6952V44.2013H81.2273V42.2013ZM81.2273 91.955H22.7812V93.955H81.2273V91.955ZM15.7812 84.955V38.5923H13.7812V84.955H15.7812ZM14.7812 38.5923C13.7812 38.5922 13.7813 38.5929 13.7813 38.5935C13.7813 38.5938 13.7813 38.5945 13.7813 38.595C13.7813 38.5959 13.7813 38.597 13.7813 38.5981C13.7813 38.6004 13.7813 38.6029 13.7813 38.6058C13.7814 38.6114 13.7815 38.6182 13.7816 38.6261C13.782 38.642 13.7826 38.6623 13.7836 38.6867C13.7857 38.7356 13.7896 38.8013 13.797 38.8816C13.8116 39.0416 13.8401 39.2615 13.8957 39.5215C14.0063 40.0387 14.2284 40.7348 14.6787 41.4368C15.6188 42.9021 17.4301 44.2013 20.6952 44.2013V42.2013C18.0461 42.2013 16.9005 41.196 16.3621 40.3568C16.0732 39.9066 15.9257 39.4504 15.8515 39.1034C15.8147 38.9313 15.797 38.7911 15.7886 38.6991C15.7844 38.6533 15.7826 38.62 15.7818 38.6014C15.7814 38.5921 15.7812 38.5865 15.7812 38.5849C15.7812 38.5841 15.7812 38.5843 15.7812 38.5855C15.7812 38.5861 15.7812 38.587 15.7812 38.5881C15.7812 38.5887 15.7812 38.5893 15.7812 38.59C15.7812 38.5904 15.7812 38.591 15.7812 38.5911C15.7812 38.5917 15.7812 38.5923 14.7812 38.5923ZM22.7812 91.955C18.9153 91.955 15.7812 88.821 15.7812 84.955H13.7812C13.7812 89.9255 17.8107 93.955 22.7812 93.955V91.955ZM88.2273 49.2013C88.2273 45.3353 85.0933 42.2013 81.2273 42.2013V44.2013C83.9887 44.2013 86.2273 46.4399 86.2273 49.2013H88.2273ZM86.2273 86.955C86.2273 89.7164 83.9887 91.955 81.2273 91.955V93.955C85.0933 93.955 88.2273 90.821 88.2273 86.955H86.2273Z" fill="#90C6FF"/>
<path d="M83.2477 50.4723V85.3031C83.2477 87.5123 81.4569 89.3031 79.2477 89.3031H24.1772C20.8635 89.3031 18.1772 86.6168 18.1772 83.3031V48.4719C18.1772 47.3674 19.0727 46.4719 20.1773 46.4719L79.2478 46.4723C81.4569 46.4723 83.2477 48.2631 83.2477 50.4723Z" fill="url(#paint3_linear_1670_1860)"/>
<path d="M87.1012 61.3206H88.1012V60.3206H87.1012V61.3206ZM87.1012 74.4994V75.4994H88.1012V74.4994H87.1012ZM74.6277 62.3206H87.1012V60.3206H74.6277V62.3206ZM86.1012 61.3206V74.4994H88.1012V61.3206H86.1012ZM87.1012 73.4994H74.6277V75.4994H87.1012V73.4994ZM71.6277 70.4994V65.3206H69.6277V70.4994H71.6277ZM74.6277 73.4994C72.9708 73.4994 71.6277 72.1562 71.6277 70.4994H69.6277C69.6277 73.2608 71.8663 75.4994 74.6277 75.4994V73.4994ZM74.6277 60.3206C71.8663 60.3206 69.6277 62.5591 69.6277 65.3206H71.6277C71.6277 63.6637 72.9708 62.3206 74.6277 62.3206V60.3206Z" fill="#288FFF"/>
<circle cx="77.2171" cy="67.91" r="2.47103" fill="#288FFF"/>
<defs>
<linearGradient id="paint0_linear_1670_1860" x1="45.4568" y1="31.6101" x2="45.4568" y2="46.3604" gradientUnits="userSpaceOnUse">
<stop stop-color="#CBE4FF"/>
<stop offset="1" stop-color="#CBE4FF" stop-opacity="0.01"/>
</linearGradient>
<linearGradient id="paint1_linear_1670_1860" x1="63.5867" y1="20.0586" x2="63.5867" y2="47.1128" gradientUnits="userSpaceOnUse">
<stop stop-color="#CAE4FF"/>
<stop offset="1" stop-color="#CAE4FF" stop-opacity="0"/>
</linearGradient>
<linearGradient id="paint2_linear_1670_1860" x1="39.4997" y1="24.8845" x2="39.4997" y2="44.1139" gradientUnits="userSpaceOnUse">
<stop stop-color="#CAE4FF"/>
<stop offset="1" stop-color="#CAE4FF" stop-opacity="0"/>
</linearGradient>
<linearGradient id="paint3_linear_1670_1860" x1="47.8296" y1="47.5701" x2="47.8296" y2="82.4392" gradientUnits="userSpaceOnUse">
<stop stop-color="#CBE4FF"/>
<stop offset="1" stop-color="#CBE4FF" stop-opacity="0"/>
</linearGradient>
</defs>
</svg>
