<svg width="94" height="94" viewBox="0 0 94 94" fill="none" xmlns="http://www.w3.org/2000/svg">
<path d="M48.3945 7.22738C49.2674 7.51503 50.7123 11.2242 51.6822 13.3337C53.1372 12.7582 55.0367 13.046 55.9096 13.3337C56.8795 11.7036 57.8501 9.98402 58.7278 9.10634C59.2378 8.59632 59.8853 8.03287 59.6675 7.69695C59.484 7.41414 58.6069 7.26784 57.3187 7.69723C55.6401 8.25676 55.4985 7.44174 53.5609 6.75761C49.4873 5.31928 47.5216 6.93973 48.3945 7.22738Z" fill="#CAE4FF"/>
<path d="M43.9481 6.47214C45.3572 6.94185 48.9584 13.3611 50.524 16.8056C52.8727 15.8659 55.6908 15.8662 57.0999 16.3359C58.6656 13.6742 62.2036 9.10616 62.9552 7.22734C63.7067 5.34852 62.1984 4.77004 61.546 4.87882C58.7278 5.34874 56.9398 4.77105 53.812 3.65393C47.2361 1.3053 42.5389 6.00243 43.9481 6.47214Z" stroke="#90C6FF" stroke-width="2"/>
<path d="M49.7902 21.2485C36.375 27.9434 32.903 39.965 36.1822 48.0917C37.0622 50.2725 47.4554 47.622 50.2736 49.9705C53.0919 52.319 56.2974 51.3704 62.0162 51.8493C65.6823 52.1563 65.3736 52.7725 68.1224 51.3796C71.6656 49.5842 69.5315 51.3796 72.8195 49.0311C75.9003 32.0865 66.0357 23.3511 58.499 20.4953C55.656 19.418 52.5105 19.8909 49.7902 21.2485Z" fill="url(#paint0_linear_1665_1790)"/>
<path d="M50.2729 29.312H60.573" stroke="#288FFF" stroke-width="2" stroke-linecap="round" stroke-linejoin="round"/>
<path d="M50.2729 33.4648H60.573" stroke="#288FFF" stroke-width="2" stroke-linecap="round" stroke-linejoin="round"/>
<path d="M50.4795 29.3126C50.4795 29.3126 57.7022 28.8974 57.7022 33.4649C57.7022 39.0706 50.4795 38.4477 50.4795 38.4477L56.4536 45.4886" stroke="#288FFF" stroke-width="2" stroke-linecap="round" stroke-linejoin="round"/>
<path d="M49.4894 17.5015C29.2302 26.222 30.3229 44.1433 33.6961 52.5029C34.5761 54.6838 45.4386 52.0332 48.2568 54.3818C51.075 56.7303 56.1594 56.2514 61.8782 56.7303L61.9781 56.7386C65.5731 57.0398 67.1395 57.1711 69.8632 55.7909C73.4064 53.9955 72.2118 54.8515 75.4997 52.5029C82.2701 31.7934 67.9917 20.539 58.4331 17.0218C55.5265 15.9522 52.3342 16.277 49.4894 17.5015Z" stroke="#90C6FF" stroke-width="2"/>
<path d="M33.226 52.9728C30.5957 53.7243 24.3016 60.4881 21.4834 63.776L35.5745 78.3367L38.8625 75.0487L59.4825 74.6522C61.9332 74.6051 64.2812 73.6595 66.0806 71.9951L78.9577 60.0838C81.0047 58.1904 82.5544 55.8226 83.4705 53.189L85.5929 47.087C85.7359 46.6759 85.6007 46.2062 85.2128 46.0088C81.5284 44.1339 76.8325 48.9736 75.4994 52.9726L65.6606 57.2001C64.6271 56.0958 62.8965 55.3213 60.4689 55.3213C52.0142 55.3213 53.4233 55.791 51.5445 54.8516C50.0414 54.1001 48.7263 52.9729 46.8475 52.5032C44.9686 52.0335 35.8564 52.2213 33.226 52.9728Z" fill="white"/>
<path d="M47.3172 64.7154C47.3172 64.7154 52.0142 64.7154 60.4689 64.7154C66.496 64.7154 68.2265 59.9416 65.6606 57.2001M65.6606 57.2001C64.6271 56.0958 62.8965 55.3213 60.4689 55.3213C52.0142 55.3213 53.4233 55.791 51.5445 54.8516C50.0414 54.1001 48.7263 52.9729 46.8475 52.5032C44.9686 52.0335 35.8564 52.2213 33.226 52.9728C30.5957 53.7243 24.3016 60.4881 21.4834 63.776L35.5745 78.3367L38.8625 75.0487L59.4825 74.6522C61.9332 74.6051 64.2812 73.6595 66.0806 71.9951L78.9577 60.0838C81.0047 58.1904 82.5544 55.8226 83.4705 53.189L85.5929 47.087C85.7359 46.6759 85.6007 46.2062 85.2128 46.0088C81.5284 44.1339 76.8325 48.9736 75.4994 52.9726L65.6606 57.2001Z" stroke="#90C6FF" stroke-width="2"/>
<path d="M34.773 56.5456C32.1427 57.2971 29.1366 60.3039 26.3184 63.5919L35.7125 73.9254L38.061 72.0464L58.138 71.2433C60.3477 71.1549 62.4657 70.3366 64.1607 68.9164L75.8677 59.1074C77.8788 57.4224 79.4725 55.2948 80.5242 52.8911L82.2132 49.0309C81.2738 48.0914 79.8485 50.7731 77.5 55L66.5 60.3039H63.8947C62.8612 59.1997 62.095 58.8941 59.6674 58.8941C51.2127 58.8941 52.6218 59.3638 50.743 58.4244C49.2399 57.6729 47.4551 56.5463 45.5763 56.0766C43.6974 55.6069 37.4034 55.7941 34.773 56.5456Z" fill="url(#paint1_linear_1665_1790)"/>
<path d="M47.3172 64.7154C47.3172 64.7154 52.0142 64.7154 60.4689 64.7154C66.496 64.7154 68.2265 59.9416 65.6606 57.2001M65.6606 57.2001C64.6271 56.0958 62.8965 55.3213 60.4689 55.3213C52.0142 55.3213 53.4233 55.791 51.5445 54.8516C50.0414 54.1001 48.7263 52.9729 46.8475 52.5032C44.9686 52.0335 35.8564 52.2213 33.226 52.9728C30.5957 53.7243 24.3016 60.4881 21.4834 63.776L35.5745 78.3367L38.8625 75.0487L59.4825 74.6522C61.9332 74.6051 64.2812 73.6595 66.0806 71.9951L78.9577 60.0838C81.0047 58.1904 82.5544 55.8226 83.4705 53.189L85.5929 47.087C85.7359 46.6759 85.6007 46.2062 85.2128 46.0088C81.5284 44.1339 76.8325 48.9736 75.4994 52.9726L65.6606 57.2001Z" stroke="#90C6FF" stroke-width="2"/>
<rect x="12.2773" y="70.7861" width="8.57859" height="22.8873" rx="1" transform="rotate(-44.2175 12.2773 70.7861)" fill="url(#paint2_linear_1665_1790)"/>
<rect x="8" y="70.4697" width="14.2895" height="29.2464" rx="2" transform="rotate(-44.2175 8 70.4697)" stroke="#90C6FF" stroke-width="2"/>
<path d="M48.726 64.7153H47.3169" stroke="#90C6FF" stroke-width="2" stroke-linecap="round"/>
<path d="M19.2729 67.3494L23.5003 71.5767" stroke="#288FFF" stroke-width="2" stroke-linecap="round"/>
<defs>
<linearGradient id="paint0_linear_1665_1790" x1="54.5216" y1="15.8662" x2="54.5216" y2="56.9355" gradientUnits="userSpaceOnUse">
<stop stop-color="#CAE4FF"/>
<stop offset="1" stop-color="#CAE4FF" stop-opacity="0"/>
</linearGradient>
<linearGradient id="paint1_linear_1665_1790" x1="53.658" y1="45.5929" x2="53.658" y2="78.3368" gradientUnits="userSpaceOnUse">
<stop stop-color="#CAE4FF"/>
<stop offset="1" stop-color="#CAE4FF" stop-opacity="0"/>
</linearGradient>
<linearGradient id="paint2_linear_1665_1790" x1="16.5666" y1="70.7861" x2="16.5666" y2="93.6734" gradientUnits="userSpaceOnUse">
<stop stop-color="#CAE4FF"/>
<stop offset="1" stop-color="#CAE4FF" stop-opacity="0"/>
</linearGradient>
</defs>
</svg>
