<svg width="94" height="94" viewBox="0 0 94 94" fill="none" xmlns="http://www.w3.org/2000/svg">
<path d="M55.9545 34.395C59.3888 22.1844 53.7662 16.389 49.1632 13.2768C49.097 13.2321 49.0091 13.2805 49.0075 13.3604C48.9192 17.7576 45.7322 22.1914 42.0642 26.2923C33.6528 35.6961 40.3956 44.2696 40.8944 48.1789C40.9019 48.2376 40.8566 48.2854 40.7975 48.2853C36.2388 48.2733 29.1687 47.4949 27.1152 42.0069C27.0817 41.9173 26.9482 41.9252 26.9179 42.0159C18.0019 68.7682 52.1309 73.3279 61.7423 62.9475C67.6198 56.5997 67.5343 50.7983 67.5298 45.1042C67.5297 45.009 67.4075 44.9677 67.3471 45.0413C64.666 48.309 61.1103 48.7953 57.8838 46.742C53.6395 44.0411 55.1018 36.9282 55.9545 34.395Z" fill="url(#paint0_linear_1675_1927)"/>
<path d="M59.3466 34.6499C63.9892 19.7859 53.0813 10.1229 46.9146 7.06853C46.8485 7.03578 46.7747 7.08554 46.7741 7.15934C46.7289 12.1835 44.5497 17.5859 40.3427 22.265C31.5177 32.0806 33.8727 40.8949 36.0719 43.922C36.1281 43.9993 36.0572 44.1054 35.9654 44.0789C31.4523 42.7728 27.4872 36.6808 26.414 33.1538C26.3873 33.0659 26.2617 33.0652 26.2213 33.1477C8.6971 68.9509 50.5227 78.8032 64.3169 65.18C74.1441 55.4746 72.0872 40.3277 67.9574 34.9515C67.8943 34.8694 67.7667 34.9332 67.7813 35.0358C68.3911 39.3203 65.0649 44.9932 60.8085 44.1545C57.3 43.4633 58.3721 37.5301 59.3466 34.6499Z" stroke="#90C6FF" stroke-width="2" stroke-linecap="round"/>
<path d="M50.0566 67.6143V68.7718" stroke="#90C6FF" stroke-width="2" stroke-linecap="round"/>
<path d="M53.2537 77.2236H39.3633V82.1688C39.3633 83.2734 40.2587 84.1688 41.3633 84.1688H51.2537C52.3582 84.1688 53.2537 83.2734 53.2537 82.1688V77.2236Z" fill="url(#paint1_linear_1675_1927)"/>
<path d="M60.5848 66.8058L56.6115 74.4686C55.7366 76.1559 53.9805 77.2013 52.0801 77.1661L39.7973 76.9387C36.7065 76.8814 34.1646 74.4869 33.9727 71.4015C33.7761 68.2409 33.5757 64.3825 33.5757 61.7898L51.2142 62.2124L52.4821 52.5295L60.5848 57.1597V66.8058Z" fill="white"/>
<path d="M33.4652 61.8265L33.4652 68.2604C33.4651 73.231 37.4946 77.2605 42.4652 77.2605L50.3882 77.2605C53.4835 77.2605 56.301 75.4749 57.6225 72.6759L60.1849 67.2483C60.311 66.9813 60.3763 66.6897 60.3763 66.3944L60.3763 58.1053C60.3763 57.4031 60.0081 56.7523 59.4061 56.3908L53.5637 52.8815C53.1447 52.6298 52.601 52.7646 52.348 53.1828V53.1828C51.258 54.985 51.7558 57.3239 53.4851 58.5261L54.9023 59.5111C55.2507 59.7533 55.4584 60.1507 55.4584 60.575L55.4584 60.6009C55.4584 61.4402 54.6795 62.0642 53.8561 62.2267C52.6532 62.4641 51.2796 63.269 50.2451 65.2938C50.1152 65.5481 50.0564 65.8332 50.0564 66.1187C50.0564 66.7672 50.0564 67.234 50.0564 68.0003" stroke="#90C6FF" stroke-width="2"/>
<path d="M58.2697 66.0342L55.3622 72.3778C54.5477 74.155 52.772 75.2945 50.8169 75.2945H41.5049C38.1912 75.2945 35.5049 72.6093 35.5049 69.2956V62.2125H51.2141L52.0962 57.9315L54.7971 58.7032L53.9935 58.0335C53.062 57.2573 52.6301 56.0336 52.8679 54.8447L58.2697 57.9315V66.0342Z" fill="url(#paint2_linear_1675_1927)"/>
<path d="M51.7102 57.5455L54.8087 59.4046C55.2716 59.6824 55.5303 60.2045 55.4707 60.7411V60.7411C55.3825 61.5366 54.6245 62.0719 53.8349 62.2028C52.602 62.4072 51.1661 63.1954 50.0942 65.2934C49.9643 65.5477 49.9056 65.8328 49.9056 66.1183C49.9056 66.7667 49.9056 67.2336 49.9056 67.9999" stroke="#288FFF" stroke-width="2"/>
<path d="M49.9053 67.614V68.7715" stroke="#288FFF" stroke-width="2" stroke-linecap="round"/>
<rect x="34.3472" y="57.1597" width="1.54338" height="3.85844" rx="0.4" fill="url(#paint3_linear_1675_1927)"/>
<rect x="38.9775" y="54.8445" width="1.54338" height="6.17351" rx="0.4" fill="url(#paint4_linear_1675_1927)"/>
<rect x="43.6074" y="52.5295" width="1.54338" height="8.48858" rx="0.4" fill="url(#paint5_linear_1675_1927)"/>
<rect x="48.2378" y="50.9861" width="1.54338" height="10.032" rx="0.4" fill="url(#paint6_linear_1675_1927)"/>
<rect x="33.0791" y="55.2673" width="4.63013" height="6.9452" rx="2" stroke="#288FFF" stroke-width="2"/>
<rect x="37.7095" y="52.9521" width="4.63013" height="9.26027" rx="2" stroke="#288FFF" stroke-width="2"/>
<rect x="42.3394" y="50.6372" width="4.63013" height="11.5753" rx="2" stroke="#288FFF" stroke-width="2"/>
<rect x="46.9697" y="49.0938" width="4.63013" height="13.1187" rx="2" stroke="#288FFF" stroke-width="2"/>
<path d="M37.0483 82.4841V76.4521C37.0483 76.4521 38.5917 77.2238 40.1351 77.2238H51.7104C53.6396 77.2238 54.7972 76.452 55.5689 76.0662V82.4841C55.5689 84.6932 53.778 86.4841 51.5689 86.4841H41.0483C38.8392 86.4841 37.0483 84.6932 37.0483 82.4841Z" stroke="#90C6FF" stroke-width="2" stroke-linecap="round"/>
<path d="M41 77H52" stroke="#288FFF" stroke-width="2" stroke-linecap="round"/>
<defs>
<linearGradient id="paint0_linear_1675_1927" x1="46.4886" y1="13.1736" x2="46.4886" y2="68.0857" gradientUnits="userSpaceOnUse">
<stop stop-color="#D0EAFF"/>
<stop offset="1" stop-color="#D0EAFF" stop-opacity="0"/>
</linearGradient>
<linearGradient id="paint1_linear_1675_1927" x1="46.3085" y1="77.2236" x2="46.3085" y2="84.1688" gradientUnits="userSpaceOnUse">
<stop stop-color="#CFE7FF"/>
<stop offset="1" stop-color="#CFE7FF" stop-opacity="0"/>
</linearGradient>
<linearGradient id="paint2_linear_1675_1927" x1="46.8873" y1="54.073" x2="46.8873" y2="75.2945" gradientUnits="userSpaceOnUse">
<stop stop-color="#CFE7FF"/>
<stop offset="1" stop-color="#CFE7FF" stop-opacity="0"/>
</linearGradient>
<linearGradient id="paint3_linear_1675_1927" x1="35.1189" y1="57.1597" x2="35.1189" y2="61.0181" gradientUnits="userSpaceOnUse">
<stop stop-color="#CFE7FF"/>
<stop offset="1" stop-color="#CFE7FF" stop-opacity="0"/>
</linearGradient>
<linearGradient id="paint4_linear_1675_1927" x1="39.7492" y1="54.8445" x2="39.7492" y2="61.018" gradientUnits="userSpaceOnUse">
<stop stop-color="#CFE7FF"/>
<stop offset="1" stop-color="#CFE7FF" stop-opacity="0"/>
</linearGradient>
<linearGradient id="paint5_linear_1675_1927" x1="44.3791" y1="52.5295" x2="44.3791" y2="61.0181" gradientUnits="userSpaceOnUse">
<stop stop-color="#CFE7FF"/>
<stop offset="1" stop-color="#CFE7FF" stop-opacity="0"/>
</linearGradient>
<linearGradient id="paint6_linear_1675_1927" x1="49.0095" y1="50.9861" x2="49.0095" y2="61.018" gradientUnits="userSpaceOnUse">
<stop stop-color="#CFE7FF"/>
<stop offset="1" stop-color="#CFE7FF" stop-opacity="0"/>
</linearGradient>
</defs>
</svg>
