<svg width="61" height="53" viewBox="0 0 61 53" fill="none" xmlns="http://www.w3.org/2000/svg">
<path d="M15.023 11.8775C18.6749 8.22176 23.545 6.03874 28.7039 5.7451C33.8628 5.45146 38.9492 7.06776 42.9923 10.2855L46.3479 6.93419C42.0634 3.37675 36.741 1.30435 31.1791 1.02786C25.6171 0.75137 20.1154 2.2857 15.4992 5.40068C10.8831 8.51567 7.40133 13.0434 5.57624 18.3047C3.75116 23.5659 3.68114 29.2771 5.37669 34.5816L9.23866 30.7196C8.5876 27.3454 8.77452 23.8629 9.78303 20.5778C10.7915 17.2927 12.5908 14.3052 15.023 11.8775V11.8775Z" fill="#288FFF"/>
<path d="M44.7555 41.6103C41.1009 45.2629 36.2294 47.442 31.0705 47.7317C25.9117 48.0214 20.8268 46.4014 16.7863 43.1809L13.4307 46.5365C17.7138 50.0944 23.0349 52.1678 28.596 52.4459C34.1572 52.7241 39.6586 51.1918 44.2753 48.0791C48.8921 44.9663 52.3752 40.4407 54.2026 35.181C56.0299 29.9213 56.1028 24.2109 54.4104 18.9062L50.5485 22.7682C51.1962 26.1432 51.0068 29.6254 49.9969 32.9102C48.987 36.195 47.1874 39.1822 44.7555 41.6103V41.6103Z" fill="#288FFF"/>
<path d="M29.8877 16.7228L33.2262 20.0613L39.6285 13.659C38.3034 12.6689 36.8345 11.8875 35.273 11.3418L29.8877 16.7228Z" fill="#288FFF"/>
<path d="M26.5537 33.4189L20.1514 39.8212C21.4758 40.8135 22.9447 41.5964 24.5068 42.1427L29.8878 36.7574L26.5537 33.4189Z" fill="#288FFF"/>
<path d="M60.4613 2.8623L49.8194 3.74627L53.0206 6.94741L33.2258 26.7422L26.5489 20.0695L0 46.6184L3.33846 49.9569L26.5489 26.7422L33.2258 33.4191L56.359 10.2859L59.5516 13.4784L60.4613 2.8623Z" fill="#288FFF"/>
</svg>
