<svg width="240" height="52" viewBox="0 0 240 52" fill="none" xmlns="http://www.w3.org/2000/svg">
<g clip-path="url(#clip0_2532_8747)">
<path d="M84.0448 22.3176C85.1097 21.5892 86.3818 21.2249 87.6708 21.2792C88.911 21.2605 90.1245 21.6394 91.1337 22.3605C92.1639 23.1166 92.9273 24.1805 93.3136 25.3986L97.7763 24.1113C97.2629 22.0117 95.9991 20.1726 94.2233 18.9405C92.3118 17.647 90.0423 16.9865 87.7352 17.0525C85.6176 16.9916 83.5264 17.5348 81.7062 18.6187C80.0332 19.6614 78.6932 21.1607 77.8442 22.9398C76.9107 24.9221 76.4411 27.0911 76.4711 29.282C76.4455 31.4509 76.9028 33.5982 77.8099 35.5685C78.6377 37.3546 79.96 38.8661 81.6204 39.9239C83.4409 41.0278 85.5428 41.5794 87.6708 41.5116C89.9247 41.5797 92.1441 40.9454 94.0216 39.6965C95.8129 38.4249 97.1331 36.5962 97.7763 34.4957L93.2278 33.4229C92.835 34.5551 92.1226 35.5493 91.1766 36.2851C90.1481 36.9912 88.9171 37.3423 87.6708 37.2849C85.551 37.2849 83.9519 36.5483 82.8734 35.075C81.7949 33.6017 81.2485 31.6707 81.2342 29.282C81.2224 27.8776 81.4621 26.4825 81.9422 25.1626C82.3486 24.0284 83.0799 23.039 84.0448 22.3176Z" fill="white"/>
<path d="M112.473 17.5759C111.717 17.6259 110.971 17.77 110.251 18.005C109.548 18.2318 108.886 18.5693 108.29 19.0048C107.674 19.4172 107.136 19.9359 106.702 20.5368C106.498 20.8108 106.312 21.0974 106.144 21.395V17.6961H102.153V40.8679H106.68V29.1747C106.675 28.2973 106.769 27.4221 106.959 26.5657C107.134 25.773 107.441 25.0156 107.869 24.3258C108.34 23.6004 108.969 22.9903 109.708 22.5409C110.447 22.0915 111.278 21.8142 112.139 21.7297C112.983 21.6376 113.837 21.6957 114.662 21.9013V17.6961C113.94 17.5671 113.205 17.5268 112.473 17.5759Z" fill="white"/>
<path d="M123.647 17.6924H119.163V40.8642H123.647V17.6924Z" fill="white"/>
<path d="M123.647 9.53906H119.163V13.8945H123.647V9.53906Z" fill="white"/>
<path d="M136.371 22.3176C137.438 21.5903 138.711 21.2262 140.001 21.2792C141.241 21.2605 142.455 21.6394 143.464 22.3605C144.494 23.1166 145.257 24.1805 145.644 25.3986L150.102 24.1113C149.592 22.0114 148.329 20.1716 146.553 18.9405C144.641 17.6478 142.372 16.9874 140.065 17.0525C137.948 16.9916 135.856 17.5348 134.036 18.6187C132.363 19.6614 131.023 21.1607 130.174 22.9398C129.241 24.9221 128.771 27.0911 128.801 29.282C128.776 31.4509 129.233 33.5982 130.14 35.5685C130.968 37.3546 132.29 38.8661 133.95 39.9239C135.771 41.0278 137.873 41.5794 140.001 41.5116C142.253 41.58 144.472 40.9456 146.347 39.6965C148.141 38.4274 149.462 36.5978 150.102 34.4957L145.558 33.4229C145.165 34.5551 144.453 35.5493 143.507 36.2851C142.478 36.9912 141.247 37.3423 140.001 37.2849C137.881 37.2849 136.282 36.5483 135.203 35.075C134.125 33.6017 133.579 31.6707 133.564 29.282C133.552 27.8776 133.792 26.4825 134.272 25.1626C134.679 24.0296 135.408 23.0405 136.371 22.3176Z" fill="white"/>
<path d="M169.545 28.9475C168.065 28.2281 166.509 27.6782 164.906 27.3083C163.09 26.8506 161.718 26.4573 160.791 26.1283C160.094 25.9325 159.452 25.5803 158.912 25.0984C158.59 24.7397 158.418 24.2713 158.431 23.7896C158.429 23.3584 158.545 22.9348 158.768 22.5654C158.99 22.196 159.31 21.8951 159.693 21.6956C160.706 21.1533 161.856 20.9192 163.001 21.0219C164.224 21.0238 165.419 21.3898 166.434 22.0732C166.865 22.3752 167.228 22.7642 167.499 23.215C167.77 23.6659 167.944 24.1686 168.009 24.6908L172.613 23.8755C172.461 22.5508 171.922 21.3003 171.064 20.2795C170.156 19.2218 168.998 18.4077 167.695 17.9109C166.19 17.3325 164.588 17.0485 162.975 17.0741C161.349 17.0391 159.732 17.3309 158.221 17.9323C156.966 18.4287 155.878 19.2691 155.08 20.3568C154.325 21.429 153.934 22.7149 153.964 24.0257C153.94 25.0276 154.197 26.0162 154.706 26.8792C155.331 27.7869 156.191 28.5065 157.195 28.9604C158.706 29.68 160.288 30.238 161.915 30.6253C163.735 31.1088 165.088 31.5164 165.975 31.8483C166.632 32.04 167.229 32.3976 167.708 32.8867C168.007 33.3017 168.158 33.8048 168.137 34.3157C168.153 34.7772 168.053 35.2353 167.845 35.6478C167.637 36.0603 167.329 36.4138 166.949 36.6757C165.969 37.2991 164.817 37.5992 163.658 37.534C162.295 37.5806 160.95 37.2174 159.796 36.4912C158.787 35.8422 158.074 34.8215 157.813 33.6505L153.222 34.3586C153.378 35.411 153.747 36.4203 154.308 37.3243C154.869 38.2284 155.609 39.008 156.483 39.6151C158.254 40.8595 160.542 41.4818 163.349 41.4818C166.284 41.4818 168.584 40.8309 170.249 39.5293C171.914 38.2277 172.74 36.4426 172.729 34.1741C172.762 33.1133 172.507 32.0635 171.991 31.136C171.393 30.1948 170.547 29.4373 169.545 28.9475Z" fill="white"/>
<path d="M183.855 11.2598H179.35V17.6964H174.904V21.3009H179.35V31.7497C179.35 33.0069 179.35 34.1355 179.401 35.1267C179.444 36.1522 179.72 37.1545 180.208 38.0575C180.74 39.1069 181.617 39.9406 182.693 40.4176C183.878 40.935 185.154 41.2121 186.447 41.2329C187.887 41.2713 189.326 41.149 190.738 40.8682V37.0706C189.43 37.2796 188.101 37.3258 186.782 37.2079C186.279 37.1801 185.791 37.0274 185.362 36.7637C184.932 36.5 184.575 36.1336 184.323 35.6974C184.04 35.1622 183.892 34.5653 183.894 33.9596C183.894 33.273 183.864 32.4663 183.864 31.5351V21.3009H190.73V17.6964H183.864L183.855 11.2598Z" fill="white"/>
<path d="M210.628 18.6188C208.793 17.5939 206.727 17.0529 204.625 17.0469C202.523 17.0409 200.454 17.5701 198.613 18.5845C196.911 19.6109 195.535 21.0987 194.644 22.8756C193.667 24.8598 193.181 27.0496 193.228 29.2607C193.183 31.46 193.658 33.6388 194.614 35.6201C195.487 37.4066 196.852 38.907 198.549 39.9455C200.386 40.9659 202.454 41.5014 204.556 41.5014C206.658 41.5014 208.726 40.9659 210.564 39.9455C212.266 38.913 213.64 37.4172 214.524 35.6329C215.446 33.6411 215.923 31.4726 215.923 29.2778C215.923 27.0831 215.446 24.9146 214.524 22.9228C213.655 21.1507 212.305 19.6591 210.628 18.6188ZM209.568 35.0322C208.472 36.5312 206.816 37.2793 204.599 37.2764C202.442 37.2764 200.804 36.5469 199.686 35.088C198.567 33.629 198.009 31.6837 198.012 29.2521C197.985 27.8353 198.225 26.4261 198.72 25.0983C199.141 23.9695 199.888 22.9911 200.866 22.2877C201.968 21.5727 203.265 21.2173 204.578 21.2707C206.766 21.2707 208.415 21.9959 209.525 23.4463C210.635 24.8967 211.189 26.8319 211.186 29.2521C211.2 31.6179 210.661 33.5446 209.568 35.0322Z" fill="white"/>
<path d="M231.31 29.1539L239.785 17.6924H234.464L228.757 25.6523L222.986 17.6924H217.665L226.14 29.1539L217.472 40.8642H222.814L228.757 32.6468L234.657 40.8642H240L231.31 29.1539Z" fill="white"/>
<path d="M15.023 10.8775C18.6749 7.22176 23.545 5.03874 28.7039 4.7451C33.8628 4.45146 38.9492 6.06776 42.9923 9.28552L46.3479 5.93419C42.0634 2.37675 36.741 0.304348 31.1791 0.0278592C25.6171 -0.24863 20.1154 1.2857 15.4992 4.40068C10.8831 7.51567 7.40133 12.0434 5.57624 17.3047C3.75116 22.5659 3.68114 28.2771 5.37669 33.5816L9.23866 29.7196C8.5876 26.3454 8.77452 22.8629 9.78303 19.5778C10.7915 16.2927 12.5908 13.3052 15.023 10.8775Z" fill="#288FFF"/>
<path d="M44.7555 40.6103C41.1009 44.2629 36.2294 46.442 31.0705 46.7317C25.9117 47.0214 20.8268 45.4014 16.7863 42.1809L13.4307 45.5365C17.7138 49.0944 23.0349 51.1678 28.596 51.4459C34.1572 51.7241 39.6586 50.1918 44.2753 47.0791C48.8921 43.9663 52.3752 39.4407 54.2026 34.181C56.0299 28.9213 56.1028 23.2109 54.4104 17.9062L50.5485 21.7682C51.1962 25.1432 51.0068 28.6254 49.9969 31.9102C48.987 35.195 47.1874 38.1822 44.7555 40.6103Z" fill="#288FFF"/>
<path d="M29.8877 15.7228L33.2262 19.0613L39.6285 12.659C38.3034 11.6689 36.8345 10.8875 35.273 10.3418L29.8877 15.7228Z" fill="#288FFF"/>
<path d="M26.5537 32.4189L20.1514 38.8212C21.4758 39.8135 22.9447 40.5964 24.5068 41.1427L29.8878 35.7574L26.5537 32.4189Z" fill="#288FFF"/>
<path d="M60.4613 1.8623L49.8194 2.74627L53.0206 5.94741L33.2258 25.7422L26.5489 19.0695L0 45.6184L3.33846 48.9569L26.5489 25.7422L33.2258 32.4191L56.359 9.28587L59.5516 12.4784L60.4613 1.8623Z" fill="#288FFF"/>
</g>
<defs>
<clipPath id="clip0_2532_8747">
<rect width="240" height="51.4886" fill="white"/>
</clipPath>
</defs>
</svg>
