<svg width="30" height="24" viewBox="0 0 30 24" fill="none" xmlns="http://www.w3.org/2000/svg">
<path d="M29.3996 2.95411C28.3396 3.43588 27.1969 3.75247 26.013 3.90388C27.2245 3.17435 28.1606 2.01811 28.6011 0.627878C27.4585 1.31611 26.192 1.79788 24.8566 2.07317C23.769 0.889407 22.2409 0.201172 20.5063 0.201172C17.2711 0.201172 14.6279 2.844 14.6279 6.10623C14.6279 6.57423 14.683 7.02847 14.7793 7.45517C9.87839 7.20741 5.51433 4.85364 2.60955 1.28858C2.10018 2.15576 1.81108 3.17435 1.81108 4.248C1.81108 6.29894 2.84359 8.11588 4.44053 9.14823C3.46309 9.14823 2.55449 8.87294 1.75601 8.46C1.75601 8.46 1.75601 8.46 1.75601 8.50129C1.75601 11.3643 3.79349 13.7594 6.49177 14.2962C5.99617 14.4339 5.47303 14.5027 4.93613 14.5027C4.56443 14.5027 4.19273 14.4614 3.83479 14.3926C4.57819 16.7188 6.73957 18.4532 9.34148 18.4945C7.33154 20.0912 4.7847 21.0272 2.00382 21.0272C1.53575 21.0272 1.06768 20.9996 0.599609 20.9446C3.21529 22.6239 6.32657 23.6012 9.65812 23.6012C20.5063 23.6012 26.4673 14.5991 26.4673 6.79447C26.4673 6.53294 26.4673 6.28517 26.4535 6.02364C27.6099 5.19776 28.6011 4.15164 29.3996 2.95411Z" fill="#288FFF"/>
</svg>
